HIERARCHY
ROOT Hips
{
	OFFSET 0.000000 0.000000 0.000000
	CHANNELS 6 Xposition Yposition Zposition Zrotation Yrotation Xrotation 
	JOINT LHipJoint
	{
		OFFSET 0.000000 0.000000 0.000000
		CHANNELS 3 Zrotation Yrotation Xrotation
		JOINT LeftUpLeg
		{
			OFFSET 1.363060 -1.794630 0.839290
			CHANNELS 3 Zrotation Yrotation Xrotation
			JOINT LeftLeg
			{
				OFFSET 2.448110 -6.726130 0.000000
				CHANNELS 3 Zrotation Yrotation Xrotation
				JOINT LeftFoot
				{
					OFFSET 2.562200 -7.039590 0.000000
					CHANNELS 3 Zrotation Yrotation Xrotation
					JOINT LeftToeBase
					{
						OFFSET 0.157640 -0.433110 2.322550
						CHANNELS 3 Zrotation Yrotation Xrotation
						End Site
						{
							OFFSET 0.000000 0.000000 0.000000
						}
					}
				}
			}
		}
	}
	JOINT RHipJoint
	{
		OFFSET 0.000000 0.000000 0.000000
		CHANNELS 3 Zrotation Yrotation Xrotation
		JOINT RightUpLeg
		{
			OFFSET -1.305520 -1.794630 0.839290
			CHANNELS 3 Zrotation Yrotation Xrotation
			JOINT RightLeg
			{
				OFFSET -2.542530 -6.985550 0.000000
				CHANNELS 3 Zrotation Yrotation Xrotation
				JOINT RightFoot
				{
					OFFSET -2.568260 -7.056230 0.000000
					CHANNELS 3 Zrotation Yrotation Xrotation
					JOINT RightToeBase
					{
						OFFSET -0.164730 -0.452590 2.363150
						CHANNELS 3 Zrotation Yrotation Xrotation
						End Site
						{
							OFFSET 0.000000 0.000000 0.000000
						}
					}
				}
			}
		}
	}
	JOINT LowerBack
	{
		OFFSET 0.000000 0.000000 0.000000
		CHANNELS 3 Zrotation Yrotation Xrotation
		JOINT Spine
		{
			OFFSET 0.028270 2.035590 -0.193380
			CHANNELS 3 Zrotation Yrotation Xrotation
			JOINT Spine1
			{
				OFFSET 0.056720 2.048850 -0.042750
				CHANNELS 3 Zrotation Yrotation Xrotation
				JOINT Neck
				{
					OFFSET 0.000000 0.000000 0.000000
					CHANNELS 3 Zrotation Yrotation Xrotation
					JOINT Neck1
					{
						OFFSET -0.054170 1.746240 0.172020
						CHANNELS 3 Zrotation Yrotation Xrotation
						JOINT Head
						{
							OFFSET 0.104070 1.761360 -0.123970
							CHANNELS 3 Zrotation Yrotation Xrotation
							End Site
							{
								OFFSET 0.000000 0.000000 0.000000
							}
						}
					}
				}
				JOINT LeftShoulder
				{
					OFFSET 0.000000 0.000000 0.000000
					CHANNELS 3 Zrotation Yrotation Xrotation
					JOINT LeftArm
					{
						OFFSET 3.362410 1.200890 -0.311210
						CHANNELS 3 Zrotation Yrotation Xrotation
						JOINT LeftForeArm
						{
							OFFSET 4.983000 -0.000000 -0.000000
							CHANNELS 3 Zrotation Yrotation Xrotation
							JOINT LeftHand
							{
								OFFSET 3.483560 -0.000000 -0.000000
								CHANNELS 3 Zrotation Yrotation Xrotation
								JOINT LeftFingerBase
								{
									OFFSET 0.000000 0.000000 0.000000
									CHANNELS 3 Zrotation Yrotation Xrotation
									JOINT LeftHandIndex1
									{
										OFFSET 0.715260 -0.000000 -0.000000
										CHANNELS 3 Zrotation Yrotation Xrotation
										End Site
										{
											OFFSET 0.000000 0.000000 0.000000
										}
									}
								}
								JOINT LThumb
								{
									OFFSET 0.000000 0.000000 0.000000
									CHANNELS 3 Zrotation Yrotation Xrotation
									End Site
									{
										OFFSET 0.000000 0.000000 0.000000
									}
								}
							}
						}
					}
				}
				JOINT RightShoulder
				{
					OFFSET 0.000000 0.000000 0.000000
					CHANNELS 3 Zrotation Yrotation Xrotation
					JOINT RightArm
					{
						OFFSET -3.136600 1.374050 -0.404650
						CHANNELS 3 Zrotation Yrotation Xrotation
						JOINT RightForeArm
						{
							OFFSET -5.241900 -0.000000 -0.000000
							CHANNELS 3 Zrotation Yrotation Xrotation
							JOINT RightHand
							{
								OFFSET -3.444170 -0.000000 -0.000000
								CHANNELS 3 Zrotation Yrotation Xrotation
								JOINT RightFingerBase
								{
									OFFSET 0.000000 0.000000 0.000000
									CHANNELS 3 Zrotation Yrotation Xrotation
									JOINT RightHandIndex1
									{
										OFFSET -0.622530 -0.000000 -0.000000
										CHANNELS 3 Zrotation Yrotation Xrotation
										End Site
										{
											OFFSET 0.000000 0.000000 0.000000
										}
									}
								}
								JOINT RThumb
								{
									OFFSET 0.000000 0.000000 0.000000
									CHANNELS 3 Zrotation Yrotation Xrotation
									End Site
									{
										OFFSET 0.000000 0.000000 0.000000
									}
								}
							}
						}
					}
				}
			}
		}
	}
}
MOTION
Frames: 8
Frame Time: 0.008333
-0.380869 17.895257 -7.273283 -6.656459 -0.527421 9.301052 -2.111024 0.070632 0.705216 -4.937195 -4.909168 -18.848420 1.679898 10.460068 30.636050 0.699406 -1.147730 -8.197247 0.098800 -2.027400 -5.581300 4.759573 1.190136 0.556153 18.895988 6.102596 -16.189047 -1.997654 -9.379551 26.442576 -0.108356 -1.646627 -8.661674 -0.033900 -1.189000 3.269100 1.223603 0.320474 -4.436481 5.989664 0.633592 0.212035 2.980385 0.303964 1.633837 -0.018736 -1.083542 -10.325096 -0.940007 0.121804 36.786713 -2.081800 0.555500 18.108400 0.560400 5.314696 -1.260246 -90.679532 2.662815 26.755304 14.282808 -24.948287 -2.533882 0.845104 0.906382 -0.814697 5.900301 33.640680 2.732600 -7.125000 0.000000 0.000000 -31.323400 60.051700 -12.214200 0.029644 -3.873967 -1.374396 84.390718 -0.618351 21.297952 -14.237224 24.797123 -2.740428 0.103471 0.202422 -6.996512 -17.671042 10.914695 -3.414000 7.125000 0.000000 0.000000 6.541500 -18.786500 4.113200 
-0.376673 17.892859 -7.272983 -6.627730 -0.607660 9.295248 -2.120258 0.072692 0.711831 -4.982704 -4.923825 -18.799562 1.670391 10.447100 30.600649 0.688336 -1.085796 -8.217130 0.095200 -1.990300 -5.478800 4.755659 1.188354 0.554747 18.843551 6.114346 -16.218867 -2.008615 -9.399516 26.506761 -0.117826 -1.585015 -8.659701 -0.032100 -1.155700 3.177300 1.267354 0.345989 -4.452482 5.934127 0.658998 0.242412 2.941738 0.316787 1.651831 -0.028626 -1.066766 -10.312692 -0.939051 0.150091 36.760868 -2.076000 0.564600 18.091600 0.564489 5.312600 -1.261610 -90.656002 2.706320 26.851852 14.264812 -24.920937 -2.528663 0.846135 0.903836 -0.870076 6.010003 33.560508 2.785600 -7.125000 0.000000 0.000000 -31.142800 60.012700 -12.105900 0.034196 -3.875330 -1.375291 84.440366 -0.580360 21.327452 -14.210858 24.755542 -2.728220 0.102610 0.205653 -7.005007 -17.766064 10.986131 -3.454800 7.125000 0.000000 0.000000 6.474900 -18.709300 4.081900 
-0.373975 17.892060 -7.273283 -6.537065 -0.680012 9.288736 -2.132883 0.072833 0.719013 -5.101141 -4.871110 -18.786941 1.665551 10.445365 30.599342 0.673067 -0.964218 -8.365657 0.131200 -2.334400 -6.430700 4.752220 1.185818 0.556233 18.721165 6.144707 -16.220407 -2.013812 -9.410641 26.540855 -0.129628 -1.509469 -8.661079 -0.038300 -1.263200 3.473400 1.218710 0.350319 -4.474350 5.873725 0.657191 0.313644 2.955869 0.316504 1.682146 -0.043248 -1.026605 -10.414682 -0.929716 0.222178 36.786651 -2.057900 0.589900 18.135100 0.568313 5.313656 -1.264386 -90.651264 2.681952 26.941296 14.235741 -24.873266 -2.514737 0.846765 0.906222 -0.984853 6.071797 33.607858 2.821400 -7.125000 0.000000 0.000000 -31.129200 60.066800 -12.140600 0.038235 -3.875147 -1.377132 84.462995 -0.519454 21.458748 -14.199619 24.736497 -2.722540 0.099095 0.208458 -7.012224 -17.932578 10.963948 -3.480200 7.125000 0.000000 0.000000 6.359500 -18.724600 4.006100 
-0.372776 17.891360 -7.274782 -6.544819 -0.713543 9.270607 -2.128975 0.075614 0.725344 -5.122196 -4.670088 -18.838500 1.666491 10.442568 30.591471 0.686633 -1.025108 -8.380169 0.166500 -2.629000 -7.247500 4.752412 1.183945 0.556867 18.722305 6.184527 -16.197986 -2.017724 -9.417831 26.563804 -0.132951 -1.495840 -8.689902 -0.044700 -1.364000 3.751000 1.205210 0.359249 -4.482522 5.892864 0.666979 0.363051 2.969793 0.322346 1.701806 -0.073713 -1.006203 -10.457414 -0.928924 0.268064 36.815110 -2.045800 0.603300 18.166700 0.567299 5.314399 -1.266620 -90.675383 2.669543 27.062029 14.233187 -24.865377 -2.508284 0.848535 0.911579 -1.108904 6.152017 33.798733 2.877600 -7.125000 0.000000 0.000000 -31.235300 60.244300 -12.320800 0.037349 -3.873895 -1.378465 84.463234 -0.511419 21.515676 -14.215310 24.760968 -2.730364 0.097902 0.206424 -7.049440 -17.907095 10.873506 -3.446600 7.125000 0.000000 0.000000 6.378000 -18.818100 4.004600 
-0.369979 17.891660 -7.276980 -6.620409 -0.706741 9.255821 -2.120693 0.078707 0.727882 -5.052101 -4.622977 -18.844575 1.667732 10.436678 30.575186 0.702197 -1.134565 -8.275567 0.141800 -2.427200 -6.687800 4.753199 1.183592 0.558482 18.799559 6.161210 -16.204570 -2.021066 -9.421789 26.577907 -0.136942 -1.465586 -8.674014 -0.051100 -1.458100 4.010300 1.272952 0.370620 -4.487703 5.931097 0.678455 0.387726 2.942966 0.329557 1.716734 -0.048956 -1.009390 -10.409407 -1.015993 0.276774 36.820218 -2.091500 0.600500 18.165800 0.564236 5.308250 -1.267561 -90.693634 2.731200 27.161319 14.273332 -24.927869 -2.524532 0.849586 0.911548 -1.210249 6.281554 33.839448 2.950500 -7.125000 0.000000 0.000000 -31.151000 60.311100 -12.333700 0.036231 -3.877691 -1.380932 84.480633 -0.536236 21.540900 -14.241282 24.803495 -2.743094 0.101061 0.202399 -7.178370 -17.703542 10.886079 -3.411300 7.125000 0.000000 0.000000 6.519700 -18.813900 4.095300 
-0.366282 17.892859 -7.279378 -6.564897 -0.729999 9.234960 -2.131228 0.076780 0.729434 -5.109398 -4.676629 -18.804128 1.665424 10.433903 30.572134 0.700232 -1.155642 -8.198489 0.098900 -2.028400 -5.584000 4.748502 1.180787 0.558322 18.727107 6.176990 -16.183140 -2.019346 -9.422043 26.573248 -0.131405 -1.491409 -8.637877 -0.048000 -1.414300 3.889500 1.268693 0.392395 -4.459335 5.838083 0.703119 0.377285 2.921870 0.342051 1.698422 0.081368 -1.005273 -10.292555 -1.109467 0.260288 36.800836 -2.160500 0.602600 18.129500 0.566434 5.297652 -1.268889 -90.634945 2.830388 27.244746 14.299805 -24.965247 -2.533836 0.847571 0.915474 -1.237255 6.220697 33.915868 2.923600 -7.125000 0.000000 0.000000 -31.280900 60.358200 -12.426800 0.044955 -3.884941 -1.382285 84.560824 -0.606096 21.552656 -14.276468 24.859227 -2.759289 0.103356 0.198717 -7.341264 -17.537213 10.895553 -3.382300 7.125000 0.000000 0.000000 6.635600 -18.810600 4.169600 
-0.363384 17.894058 -7.282275 -6.478760 -0.764386 9.220821 -2.143114 0.072746 0.728295 -5.215420 -4.657547 -18.796454 1.663650 10.436072 30.580868 0.687519 -1.099917 -8.187526 0.097200 -2.010200 -5.533800 4.744555 1.177916 0.553630 18.619061 6.251541 -16.141731 -2.015481 -9.419736 26.560033 -0.121515 -1.558692 -8.649597 -0.044700 -1.365100 3.754000 1.206049 0.408489 -4.411278 5.739621 0.728093 0.307330 2.930530 0.353473 1.651182 0.228092 -0.983361 -10.108115 -1.161788 0.251052 36.769281 -2.209900 0.615600 18.066200 0.568998 5.286886 -1.268168 -90.567403 2.945491 27.294826 14.291224 -24.947008 -2.528961 0.845811 0.918471 -1.168881 6.093268 33.961136 2.858200 -7.125000 0.000000 0.000000 -31.444900 60.362500 -12.503100 0.053988 -3.891119 -1.380839 84.655119 -0.737314 21.534537 -14.322376 24.927328 -2.778028 0.102563 0.196870 -7.399199 -17.544059 10.855533 -3.371700 7.125000 0.000000 0.000000 6.631300 -18.849500 4.161100 
-0.360787 17.894458 -7.284373 -6.516208 -0.784062 9.218048 -2.138615 0.072879 0.727337 -5.202356 -4.581786 -18.826356 1.667359 10.440832 30.593924 0.684109 -1.074216 -8.204179 0.121600 -2.247700 -6.190900 4.745636 1.177442 0.552019 18.647019 6.278875 -16.127929 -2.014879 -9.417691 26.554660 -0.125444 -1.538933 -8.668245 -0.049500 -1.435900 3.949100 1.226262 0.405502 -4.399849 5.758819 0.726129 0.284293 2.923816 0.352733 1.642469 0.285053 -0.946145 -9.998516 -1.173369 0.285811 36.744924 -2.219600 0.637100 18.029100 0.567334 5.281430 -1.267455 -90.579135 2.999511 27.245140 14.275930 -24.922894 -2.523228 0.846645 0.916620 -1.105944 6.096150 33.930778 2.857700 -7.125000 0.000000 0.000000 -31.412700 60.338300 -12.470500 0.054399 -3.894212 -1.380658 84.716560 -0.792865 21.497079 -14.355625 24.977655 -2.790174 0.103295 0.197256 -7.283948 -17.604747 10.884445 -3.392900 7.125000 0.000000 0.000000 6.588200 -18.816000 4.138600 
